<?xml version="1.0" encoding="utf-8"?>
<!-- Generator: Adobe Illustrator 16.0.0, SVG Export Plug-In . SVG Version: 6.00 Build 0)  -->
<!DOCTYPE svg PUBLIC "-//W3C//DTD SVG 1.1//EN" "http://www.w3.org/Graphics/SVG/1.1/DTD/svg11.dtd">
<svg version="1.1" id="Layer_1" xmlns="http://www.w3.org/2000/svg" xmlns:xlink="http://www.w3.org/1999/xlink" x="0px" y="0px"
	 width="128px" height="16.5px" viewBox="0 0 128 16.5" enable-background="new 0 0 128 16.5" xml:space="preserve">
<g>
	<path d="M10.419,4.509c0.276,0,0.443,0.036,0.443,0.18c0,0.108-0.108,0.276-0.335,0.528L7.564,8.311l3.298,4.102
		c0.144,0.18,0.216,0.312,0.216,0.408c0,0.132-0.156,0.18-0.432,0.18h-0.479c-0.576,0-0.612-0.012-0.912-0.408L6.077,8.634v3.85
		C6.077,12.916,5.993,13,5.562,13h-0.36c-0.432,0-0.516-0.084-0.516-0.516V5.12c0-0.54,0.072-0.611,0.612-0.611h0.167
		c0.54,0,0.612,0.072,0.612,0.611v2.938l2.531-2.687c0.719-0.828,0.768-0.863,1.307-0.863H10.419z"/>
	<path d="M13.601,12.484c0,0.432-0.084,0.516-0.516,0.516h-0.36c-0.432,0-0.516-0.084-0.516-0.516V5.12
		c0-0.54,0.072-0.611,0.611-0.611h0.168c0.54,0,0.612,0.072,0.612,0.611V12.484z"/>
	<path d="M24.721,12.508c0,0.408-0.096,0.492-0.492,0.492h-0.348c-0.408,0-0.492-0.084-0.492-0.492V8.274
		c0-0.695,0-1.931,0.108-2.626c-0.096,0.312-0.204,0.696-0.372,1.164l-2.243,5.865C20.787,12.94,20.631,13,20.367,13h-0.384
		c-0.276,0-0.42-0.06-0.516-0.324l-2.207-5.865c-0.168-0.432-0.288-0.792-0.36-1.091c0.096,0.647,0.096,1.823,0.096,2.458v4.33
		c0,0.408-0.072,0.492-0.48,0.492h-0.348c-0.408,0-0.492-0.084-0.492-0.492V5.096c0-0.516,0.072-0.587,0.587-0.587h0.948
		c0.516,0,0.6,0.096,0.744,0.54l2.027,5.649c0.096,0.276,0.156,0.672,0.192,0.936c0.036-0.264,0.108-0.672,0.204-0.936l2.123-5.673
		c0.156-0.432,0.24-0.516,0.755-0.516h0.875c0.504,0,0.588,0.072,0.588,0.587V12.508z"/>
	<path d="M31.037,12.484c0,0.432-0.084,0.516-0.516,0.516h-0.36c-0.432,0-0.516-0.084-0.516-0.516V5.12
		c0-0.54,0.072-0.611,0.611-0.611h1.907c1.931,0,3.322,0.792,3.322,2.626c0,1.355-0.684,2.099-1.751,2.435l1.847,2.867
		c0.096,0.156,0.144,0.288,0.144,0.372c0,0.132-0.12,0.192-0.372,0.192h-0.336c-0.564,0-0.684-0.048-0.899-0.396L32.32,9.786h-1.283
		V12.484z M31.037,5.648v2.999h1.127c1.139,0,1.835-0.48,1.835-1.511s-0.696-1.487-1.835-1.487H31.037z"/>
	<path d="M38.597,10.085c0,1.043,0.48,1.895,1.763,1.895c1.427,0,1.895-0.852,1.895-1.895V5.132c0-0.552,0.072-0.624,0.611-0.624
		h0.156c0.552,0,0.624,0.072,0.624,0.624v4.965c0,1.811-0.996,3.058-3.286,3.058c-2.171,0-3.154-1.247-3.154-3.058V5.132
		c0-0.552,0.072-0.624,0.612-0.624h0.156c0.552,0,0.624,0.072,0.624,0.624V10.085z"/>
	<path d="M48.796,13h-2.626c-0.444,0-0.528-0.084-0.528-0.516V5.132c0-0.54,0.084-0.624,0.624-0.624h2.531
		c3.058,0,4.498,1.691,4.498,4.233C53.293,11.261,51.866,13,48.796,13z M47.033,5.708v6.093h1.859c2.171,0,2.902-1.487,2.902-3.07
		c0-1.619-0.768-3.022-2.902-3.022H47.033z"/>
	<path d="M58.804,13.156c-2.962,0-4.366-1.775-4.366-4.341c0-2.627,1.451-4.45,4.366-4.45c2.926,0,4.354,1.823,4.354,4.45
		C63.157,11.381,61.778,13.156,58.804,13.156z M58.804,11.957c2.146,0,2.914-1.475,2.914-3.154c0-1.727-0.779-3.238-2.914-3.238
		s-2.927,1.511-2.927,3.238C55.877,10.481,56.657,11.957,58.804,11.957z"/>
	<path d="M66.148,11.801h3.214c0.384,0,0.456,0.072,0.456,0.444v0.312c0,0.372-0.072,0.444-0.456,0.444h-4.09
		c-0.432,0-0.516-0.084-0.516-0.516V5.12c0-0.54,0.072-0.611,0.612-0.611h0.167c0.54,0,0.612,0.072,0.612,0.611V11.801z"/>
	<path d="M73.504,4.509c1.931,0,3.334,0.792,3.334,2.626c0,1.931-1.403,2.65-3.334,2.65H72.4v2.699c0,0.432-0.084,0.516-0.516,0.516
		h-0.36c-0.432,0-0.516-0.084-0.516-0.516V5.12c0-0.54,0.072-0.611,0.612-0.611H73.504z M72.4,5.648v2.999h1.104
		c1.139,0,1.835-0.48,1.835-1.511s-0.696-1.487-1.835-1.487H72.4z"/>
	<path d="M84.746,12.484c0,0.432-0.084,0.516-0.516,0.516h-0.36c-0.432,0-0.516-0.084-0.516-0.516V9.186h-3.742v3.298
		c0,0.432-0.084,0.516-0.516,0.516h-0.36c-0.432,0-0.516-0.084-0.516-0.516V5.12c0-0.54,0.072-0.611,0.612-0.611H79
		c0.54,0,0.612,0.072,0.612,0.611v2.867h3.742V5.12c0-0.54,0.072-0.611,0.611-0.611h0.168c0.54,0,0.612,0.072,0.612,0.611V12.484z"
		/>
	<path d="M92.164,4.509c1.931,0,3.334,0.792,3.334,2.626c0,1.931-1.403,2.65-3.334,2.65H91.06v2.699
		c0,0.432-0.084,0.516-0.516,0.516h-0.36c-0.432,0-0.516-0.084-0.516-0.516V5.12c0-0.54,0.072-0.611,0.611-0.611H92.164z
		 M91.06,5.648v2.999h1.104c1.139,0,1.835-0.48,1.835-1.511s-0.696-1.487-1.835-1.487H91.06z"/>
	<path d="M101.042,11.009h-3.55l-0.587,1.571c-0.144,0.36-0.24,0.42-0.624,0.42h-0.504c-0.336,0-0.408-0.156-0.3-0.432l2.986-7.664
		c0.132-0.335,0.228-0.396,0.612-0.396h0.396c0.42,0,0.504,0.096,0.624,0.408l2.975,7.664c0.096,0.264,0.024,0.42-0.264,0.42h-0.564
		c-0.384,0-0.479-0.06-0.612-0.432L101.042,11.009z M97.936,9.81h2.65l-1.319-3.514L97.936,9.81z"/>
	<path d="M104.165,4.509h4.629c0.216,0,0.288,0.108,0.288,0.3v0.528c0,0.276-0.06,0.432-0.228,0.708l-3.526,5.757h3.598
		c0.372,0,0.444,0.072,0.444,0.444v0.312c0,0.372-0.072,0.444-0.444,0.444h-4.881c-0.228,0-0.3-0.108-0.3-0.312v-0.527
		c0-0.276,0.084-0.468,0.228-0.708l3.502-5.745h-2.435c-0.888,0-1.271-0.492-1.271-0.959C103.769,4.509,103.865,4.509,104.165,4.509
		z"/>
	<path d="M110.753,12.484V5.132c0-0.54,0.084-0.624,0.624-0.624h4.198c0.324,0,0.408,0,0.408,0.228c0,0.48-0.384,0.972-1.271,0.972
		h-2.566v2.279h2.758c0.313,0,0.408,0,0.408,0.228c0,0.479-0.384,0.971-1.283,0.971h-1.883v2.615h3.31
		c0.384,0,0.456,0.072,0.456,0.444v0.312c0,0.372-0.072,0.444-0.456,0.444h-4.173C110.837,13,110.753,12.916,110.753,12.484z"/>
	<path d="M118.637,6.667c0,0.996,1.079,1.151,2.026,1.463c1.188,0.372,2.147,0.959,2.147,2.506c0,1.523-0.899,2.519-3.095,2.519
		c-0.684,0-1.476-0.108-2.051-0.384c-0.563-0.264-0.756-0.611-0.756-1.115c0-0.42,0.132-0.384,0.479-0.24
		c0.672,0.312,1.319,0.54,2.22,0.54c0.923,0,1.786-0.252,1.786-1.235c0-1.055-0.995-1.319-1.883-1.583
		c-1.223-0.36-2.29-0.959-2.29-2.399c0-1.679,1.199-2.375,2.938-2.375c0.852,0,1.584,0.156,2.052,0.492
		c0.359,0.276,0.407,0.588,0.407,0.852c0,0.288-0.06,0.384-0.359,0.276c-0.612-0.24-1.14-0.42-2.039-0.42
		C119.152,5.564,118.637,5.936,118.637,6.667z"/>
</g>
</svg>
